<svg width="118" height="165" viewBox="0 0 118 165" fill="none" xmlns="http://www.w3.org/2000/svg">
<path d="M28.9296 22.2117C28.9296 13.3271 35.022 6.34649 42.7756 6.34649C50.5291 6.34649 56.6216 13.3274 56.6216 22.2117V37.4425C59.9444 33.6348 62.16 27.9231 62.16 22.2117C62.1603 10.1538 53.2988 0 42.7759 0C32.2529 0 23.3911 10.1538 23.3911 22.2117C23.3911 28.5579 25.6065 33.6348 28.9296 37.4425V22.2117Z" fill="white"/>
<path d="M109.237 57.1154C104.806 57.1154 100.929 61.5579 100.929 66.6348V80.5963V82.5H95.3908V67.904V60.2886C95.3908 55.2117 91.5137 50.7692 87.083 50.7692C82.6522 50.7692 78.7751 55.2117 78.7751 60.2886V66.6348V76.1538H73.2367V66.6344V53.9421C73.2367 48.8652 69.3596 44.4227 64.9288 44.4227C60.4981 44.4227 56.6213 48.8652 56.6213 53.9421V66V82.5H51.0828V66.6348V22.2117C51.0828 17.1348 47.2058 12.6923 42.775 12.6923C38.3442 12.6923 34.4672 17.1348 34.4672 22.2117V87.5769C22.8362 73.6154 7.88254 58.3846 1.79037 65.3652C-4.30208 72.3462 11.2056 91.3846 32.8058 133.269C42.775 152.308 54.9596 165 76.0055 165C98.713 165 117.544 143.423 117.544 117.404V96.4615V66.6344C117.545 61.5579 113.668 57.1154 109.237 57.1154Z" fill="white"/>
</svg>
