<svg width="80" height="80" viewBox="0 0 80 80" fill="none" xmlns="http://www.w3.org/2000/svg">
<path d="M40 80C62.0913 80 80 62.0913 80 40C80 17.9087 62.0913 0 40 0C17.9087 0 0 17.9087 0 40C0 62.0913 17.9087 80 40 80Z" fill="black"/>
<path d="M14.8971 41.9565C19.5731 39.3808 24.7928 37.2311 29.6698 35.0705C38.0601 31.5315 46.4838 28.0538 54.9924 24.8161C56.6479 24.2645 59.6224 23.725 59.9141 26.1783C59.7544 29.651 59.0974 33.1033 58.6468 36.5556C57.5029 44.1476 56.1809 51.7136 54.8918 59.2806C54.4476 61.8011 51.2901 63.106 49.2698 61.493C44.4144 58.2133 39.5218 54.9656 34.7284 51.61C33.1583 50.0145 34.6143 47.7233 36.0166 46.584C40.0156 42.643 44.2566 39.2946 48.0466 35.15C49.0689 32.6811 46.0483 34.7618 45.0519 35.3993C39.5773 39.172 34.2366 43.175 28.4646 46.4906C25.5163 48.1136 22.0799 46.7266 19.1329 45.821C16.4906 44.727 12.6185 43.6248 14.8969 41.9566L14.8971 41.9565Z" fill="white"/>
</svg>
