<svg width="80" height="80" viewBox="0 0 80 80" fill="none" xmlns="http://www.w3.org/2000/svg">
<path d="M40 80C62.0914 80 80 62.0914 80 40C80 17.9086 62.0914 0 40 0C17.9086 0 0 17.9086 0 40C0 62.0914 17.9086 80 40 80Z" fill="black"/>
<path d="M58.3458 22.0402C53.8608 17.5536 47.8985 15.0821 41.5485 15.0801C28.4628 15.0801 17.8125 25.7263 17.8059 38.8125C17.8059 42.9978 18.8994 47.0778 20.9735 50.6754L17.6069 62.976L30.1919 59.6735C33.6613 61.5664 37.5642 62.5643 41.5414 62.5643H41.5485C54.6312 62.5643 65.2845 51.9181 65.2911 38.8303C65.2916 32.4875 62.8273 26.5252 58.3458 22.0402ZM41.5485 58.5581H41.5414C38.0008 58.5545 34.5279 57.603 31.4987 55.8062L30.774 55.3762L23.3097 57.3368L25.3018 50.0567L24.8296 49.3112C22.8553 46.1716 21.8111 42.5389 21.8146 38.812C21.8182 27.9353 30.6713 19.0853 41.5551 19.0853C46.8248 19.0888 51.7826 21.1431 55.5079 24.872C59.2327 28.6008 61.2854 33.5561 61.2819 38.8278C61.2788 49.7091 52.4258 58.5581 41.5485 58.5581ZM52.3729 43.782C51.7795 43.4874 48.8638 42.0529 48.3209 41.8539C47.7779 41.655 47.3795 41.5552 46.9856 42.1486C46.5918 42.7414 45.455 44.0766 45.1074 44.4745C44.7589 44.872 44.4149 44.9218 43.8221 44.6236C43.2288 44.3249 41.315 43.7006 39.049 41.6799C37.2879 40.1065 36.0946 38.1642 35.7537 37.5709C35.4056 36.9761 35.7145 36.6565 36.0091 36.3598C36.2793 36.0952 36.6055 35.6673 36.9006 35.3213C37.1953 34.9747 37.2945 34.728 37.494 34.3321C37.6929 33.9362 37.5932 33.5902 37.4441 33.2935C37.295 32.9953 36.1089 30.076 35.6153 28.8899C35.1359 27.7322 34.6459 27.8884 34.28 27.8706C33.9356 27.8549 33.5381 27.8513 33.1438 27.8513C32.7499 27.8513 32.1037 27.9989 31.5638 28.5932C31.0168 29.1865 29.4861 30.621 29.4861 33.5398C29.4861 36.4586 31.6131 39.2781 31.9083 39.6745C32.2029 40.0704 36.0916 46.0576 42.0396 48.6288C43.4567 49.2395 44.5609 49.6053 45.4239 49.8786C46.8442 50.3299 48.1402 50.2658 49.1635 50.1132C50.2993 49.9427 52.6721 48.6787 53.1651 47.2936C53.6592 45.9085 53.6592 44.7224 53.5096 44.474C53.3595 44.2257 52.9692 44.0766 52.3729 43.782Z" fill="white"/>
</svg>
